<?xml version="1.0" encoding="UTF-8"?>
<!--Generator: Apple Native CoreSVG 175.5-->
<!DOCTYPE svg
PUBLIC "-//W3C//DTD SVG 1.1//EN"
       "http://www.w3.org/Graphics/SVG/1.1/DTD/svg11.dtd">
<svg version="1.1" xmlns="http://www.w3.org/2000/svg" xmlns:xlink="http://www.w3.org/1999/xlink" width="3300" height="2200">
 <!--glyph: "", point size: 100.0, font version: "18.0d12e2", template writer version: "101"-->
 <style>.monochrome-0 {fill:#000000}

.SFSymbolsPreview000000 {fill:#000000;opacity:1.0}
</style>
 <g id="Notes">
  <rect height="2200" id="artboard" style="fill:white;opacity:1" width="3300" x="0" y="0"/>
  <line style="fill:none;stroke:black;opacity:1;stroke-width:0.5;" x1="263" x2="3036" y1="292" y2="292"/>
  <text style="stroke:none;fill:black;font-family:sans-serif;font-size:13;font-weight:bold;" transform="matrix(1 0 0 1 263 322)">Weight/Scale Variations</text>
  <text style="stroke:none;fill:black;font-family:sans-serif;font-size:13;text-anchor:middle;" transform="matrix(1 0 0 1 559.711 322)">Ultralight</text>
  <text style="stroke:none;fill:black;font-family:sans-serif;font-size:13;text-anchor:middle;" transform="matrix(1 0 0 1 856.422 322)">Thin</text>
  <text style="stroke:none;fill:black;font-family:sans-serif;font-size:13;text-anchor:middle;" transform="matrix(1 0 0 1 1153.13 322)">Light</text>
  <text style="stroke:none;fill:black;font-family:sans-serif;font-size:13;text-anchor:middle;" transform="matrix(1 0 0 1 1449.84 322)">Regular</text>
  <text style="stroke:none;fill:black;font-family:sans-serif;font-size:13;text-anchor:middle;" transform="matrix(1 0 0 1 1746.56 322)">Medium</text>
  <text style="stroke:none;fill:black;font-family:sans-serif;font-size:13;text-anchor:middle;" transform="matrix(1 0 0 1 2043.27 322)">Semibold</text>
  <text style="stroke:none;fill:black;font-family:sans-serif;font-size:13;text-anchor:middle;" transform="matrix(1 0 0 1 2339.98 322)">Bold</text>
  <text style="stroke:none;fill:black;font-family:sans-serif;font-size:13;text-anchor:middle;" transform="matrix(1 0 0 1 2636.69 322)">Heavy</text>
  <text style="stroke:none;fill:black;font-family:sans-serif;font-size:13;text-anchor:middle;" transform="matrix(1 0 0 1 2933.4 322)">Black</text>
  <line style="fill:none;stroke:black;opacity:1;stroke-width:0.5;" x1="263" x2="3036" y1="1903" y2="1903"/>
  <g transform="matrix(1 0 0 1 263 1933)">
   <path d="M9.24805 0.830078C13.5547 0.830078 17.1387-2.74414 17.1387-7.05078C17.1387-11.3574 13.5449-14.9316 9.23828-14.9316C4.94141-14.9316 1.36719-11.3574 1.36719-7.05078C1.36719-2.74414 4.95117 0.830078 9.24805 0.830078ZM9.24805-0.654297C5.70312-0.654297 2.87109-3.49609 2.87109-7.05078C2.87109-10.6055 5.69336-13.4473 9.23828-13.4473C12.793-13.4473 15.6445-10.6055 15.6445-7.05078C15.6445-3.49609 12.8027-0.654297 9.24805-0.654297ZM5.6543-7.05078C5.6543-6.62109 5.95703-6.32812 6.40625-6.32812L8.50586-6.32812L8.50586-4.20898C8.50586-3.76953 8.79883-3.4668 9.22852-3.4668C9.67773-3.4668 9.9707-3.76953 9.9707-4.20898L9.9707-6.32812L12.0898-6.32812C12.5293-6.32812 12.832-6.62109 12.832-7.05078C12.832-7.49023 12.5293-7.79297 12.0898-7.79297L9.9707-7.79297L9.9707-9.90234C9.9707-10.3516 9.67773-10.6543 9.22852-10.6543C8.79883-10.6543 8.50586-10.3516 8.50586-9.90234L8.50586-7.79297L6.40625-7.79297C5.95703-7.79297 5.6543-7.49023 5.6543-7.05078Z"/>
  </g>
  <g transform="matrix(1 0 0 1 281.867 1933)">
   <path d="M11.709 2.91016C17.1582 2.91016 21.6699-1.61133 21.6699-7.05078C21.6699-12.5 17.1484-17.0117 11.6992-17.0117C6.25977-17.0117 1.74805-12.5 1.74805-7.05078C1.74805-1.61133 6.26953 2.91016 11.709 2.91016ZM11.709 1.25C7.09961 1.25 3.41797-2.44141 3.41797-7.05078C3.41797-11.6602 7.08984-15.3516 11.6992-15.3516C16.3086-15.3516 20.0098-11.6602 20.0098-7.05078C20.0098-2.44141 16.3184 1.25 11.709 1.25ZM7.17773-7.05078C7.17773-6.57227 7.50977-6.25 8.00781-6.25L10.8789-6.25L10.8789-3.36914C10.8789-2.88086 11.2109-2.53906 11.6895-2.53906C12.1777-2.53906 12.5195-2.87109 12.5195-3.36914L12.5195-6.25L15.4004-6.25C15.8887-6.25 16.2305-6.57227 16.2305-7.05078C16.2305-7.53906 15.8887-7.88086 15.4004-7.88086L12.5195-7.88086L12.5195-10.752C12.5195-11.25 12.1777-11.5918 11.6895-11.5918C11.2109-11.5918 10.8789-11.25 10.8789-10.752L10.8789-7.88086L8.00781-7.88086C7.50977-7.88086 7.17773-7.53906 7.17773-7.05078Z"/>
  </g>
  <g transform="matrix(1 0 0 1 305.646 1933)">
   <path d="M14.9707 5.66406C21.9336 5.66406 27.6953-0.0976562 27.6953-7.05078C27.6953-14.0137 21.9238-19.7754 14.9609-19.7754C8.00781-19.7754 2.25586-14.0137 2.25586-7.05078C2.25586-0.0976562 8.01758 5.66406 14.9707 5.66406ZM14.9707 3.84766C8.93555 3.84766 4.08203-1.01562 4.08203-7.05078C4.08203-13.0957 8.92578-17.9492 14.9609-17.9492C21.0059-17.9492 25.8691-13.0957 25.8691-7.05078C25.8691-1.01562 21.0156 3.84766 14.9707 3.84766ZM9.19922-7.05078C9.19922-6.5332 9.57031-6.17188 10.1172-6.17188L14.0625-6.17188L14.0625-2.2168C14.0625-1.67969 14.4336-1.29883 14.9512-1.29883C15.4883-1.29883 15.8594-1.66992 15.8594-2.2168L15.8594-6.17188L19.8145-6.17188C20.3516-6.17188 20.7324-6.5332 20.7324-7.05078C20.7324-7.59766 20.3613-7.96875 19.8145-7.96875L15.8594-7.96875L15.8594-11.9141C15.8594-12.4609 15.4883-12.8418 14.9512-12.8418C14.4336-12.8418 14.0625-12.4609 14.0625-11.9141L14.0625-7.96875L10.1172-7.96875C9.57031-7.96875 9.19922-7.59766 9.19922-7.05078Z"/>
  </g>
  <text style="stroke:none;fill:black;font-family:sans-serif;font-size:13;font-weight:bold;" transform="matrix(1 0 0 1 263 1953)">Design Variations</text>
  <text style="stroke:none;fill:black;font-family:sans-serif;font-size:13;" transform="matrix(1 0 0 1 263 1971)">Symbols are supported in up to nine weights and three scales.</text>
  <text style="stroke:none;fill:black;font-family:sans-serif;font-size:13;" transform="matrix(1 0 0 1 263 1989)">For optimal layout with text and other symbols, vertically align</text>
  <text style="stroke:none;fill:black;font-family:sans-serif;font-size:13;" transform="matrix(1 0 0 1 263 2007)">symbols with the adjacent text.</text>
  <line style="fill:none;stroke:#00AEEF;stroke-width:0.5;opacity:1.0;" x1="776" x2="776" y1="1919" y2="1933"/>
  <g transform="matrix(1 0 0 1 776 1933)">
   <path d="M3.31055 0.15625C3.82812 0.15625 4.08203-0.0390625 4.26758-0.585938L5.52734-4.0332L11.2891-4.0332L12.5488-0.585938C12.7344-0.0390625 12.9883 0.15625 13.4961 0.15625C14.0137 0.15625 14.3457-0.15625 14.3457-0.644531C14.3457-0.810547 14.3164-0.966797 14.2383-1.17188L9.6582-13.3691C9.43359-13.9648 9.0332-14.2676 8.4082-14.2676C7.80273-14.2676 7.39258-13.9746 7.17773-13.3789L2.59766-1.16211C2.51953-0.957031 2.49023-0.800781 2.49023-0.634766C2.49023-0.146484 2.80273 0.15625 3.31055 0.15625ZM6.00586-5.51758L8.37891-12.0898L8.42773-12.0898L10.8008-5.51758Z"/>
  </g>
  <line style="fill:none;stroke:#00AEEF;stroke-width:0.5;opacity:1.0;" x1="793.197" x2="793.197" y1="1919" y2="1933"/>
  <text style="stroke:none;fill:black;font-family:sans-serif;font-size:13;font-weight:bold;" transform="matrix(1 0 0 1 776 1953)">Margins</text>
  <text style="stroke:none;fill:black;font-family:sans-serif;font-size:13;" transform="matrix(1 0 0 1 776 1971)">Leading and trailing margins on the left and right side of each symbol</text>
  <text style="stroke:none;fill:black;font-family:sans-serif;font-size:13;" transform="matrix(1 0 0 1 776 1989)">can be adjusted by modifying the x-location of the margin guidelines.</text>
  <text style="stroke:none;fill:black;font-family:sans-serif;font-size:13;" transform="matrix(1 0 0 1 776 2007)">Modifications are automatically applied proportionally to all</text>
  <text style="stroke:none;fill:black;font-family:sans-serif;font-size:13;" transform="matrix(1 0 0 1 776 2025)">scales and weights.</text>
  <g transform="matrix(1 0 0 1 1289 1933)">
   <path d="M2.8418 1.86523L4.54102 3.57422C5.40039 4.44336 6.38672 4.38477 7.31445 3.35938L18.0078-8.42773L17.041-9.4043L6.42578 2.27539C6.07422 2.67578 5.74219 2.77344 5.27344 2.30469L4.10156 1.14258C3.63281 0.683594 3.74023 0.341797 4.14062-0.0195312L15.6152-10.8203L14.6387-11.7871L3.04688-0.898438C2.06055 0.0195312 1.98242 0.996094 2.8418 1.86523ZM9.25781-16.3281C8.83789-15.918 8.80859-15.3418 9.04297-14.9512C9.27734-14.5898 9.73633-14.3555 10.3809-14.5215C11.8457-14.8633 13.3691-14.9219 14.7949-13.9844L14.209-12.5293C13.8672-11.6992 14.043-11.1133 14.5801-10.5664L16.875-8.25195C17.3633-7.76367 17.7734-7.74414 18.3398-7.8418L19.4043-8.03711L20.0684-7.36328L20.0293-6.80664C19.9902-6.30859 20.1172-5.92773 20.6055-5.44922L21.3672-4.70703C21.8457-4.22852 22.4609-4.19922 22.9297-4.66797L25.8398-7.58789C26.3086-8.05664 26.2891-8.65234 25.8105-9.13086L25.0391-9.89258C24.5605-10.3711 24.1895-10.5273 23.7109-10.4883L23.1348-10.4395L22.4902-11.0742L22.7344-12.1973C22.8613-12.7637 22.7051-13.2031 22.1191-13.7891L19.9219-15.9766C16.582-19.2969 12.1484-19.2188 9.25781-16.3281ZM10.752-15.957C13.1836-17.7344 16.4746-17.4316 18.7012-15.2051L21.1328-12.793C21.3672-12.5586 21.4062-12.373 21.3379-12.0312L21.0156-10.5469L22.5195-9.0625L23.5059-9.12109C23.7598-9.13086 23.8379-9.11133 24.0332-8.91602L24.6094-8.33984L22.168-5.89844L21.5918-6.47461C21.3965-6.66992 21.3672-6.74805 21.377-7.01172L21.4453-7.98828L19.9512-9.47266L18.4277-9.21875C18.1055-9.15039 17.959-9.17969 17.7148-9.41406L15.7129-11.416C15.459-11.6504 15.4297-11.8164 15.5859-12.1875L16.4648-14.2773C14.9023-15.7324 12.8711-16.3574 10.8398-15.7617C10.6836-15.7227 10.625-15.8496 10.752-15.957Z"/>
  </g>
  <text style="stroke:none;fill:black;font-family:sans-serif;font-size:13;font-weight:bold;" transform="matrix(1 0 0 1 1289 1953)">Exporting</text>
  <text style="stroke:none;fill:black;font-family:sans-serif;font-size:13;" transform="matrix(1 0 0 1 1289 1971)">Symbols should be outlined when exporting to ensure the</text>
  <text style="stroke:none;fill:black;font-family:sans-serif;font-size:13;" transform="matrix(1 0 0 1 1289 1989)">design is preserved when submitting to Xcode.</text>
  <text id="template-version" style="stroke:none;fill:black;font-family:sans-serif;font-size:13;text-anchor:end;" transform="matrix(1 0 0 1 3036 1933)">Template v.4.0</text>
  <text style="stroke:none;fill:black;font-family:sans-serif;font-size:13;text-anchor:end;" transform="matrix(1 0 0 1 3036 1951)">Requires Xcode 14 or greater</text>
  <text id="descriptive-name" style="stroke:none;fill:black;font-family:sans-serif;font-size:13;text-anchor:end;" transform="matrix(1 0 0 1 3036 1969)">Generated from fullscreen_exit-fullscreen_exit_symbol</text>
  <text style="stroke:none;fill:black;font-family:sans-serif;font-size:13;text-anchor:end;" transform="matrix(1 0 0 1 3036 1987)">Typeset at 100 points</text>
  <text style="stroke:none;fill:black;font-family:sans-serif;font-size:13;" transform="matrix(1 0 0 1 263 726)">Small</text>
  <text style="stroke:none;fill:black;font-family:sans-serif;font-size:13;" transform="matrix(1 0 0 1 263 1156)">Medium</text>
  <text style="stroke:none;fill:black;font-family:sans-serif;font-size:13;" transform="matrix(1 0 0 1 263 1586)">Large</text>
 </g>
 <g id="Guides">
  <g id="H-reference" style="fill:#27AAE1;stroke:none;" transform="matrix(1 0 0 1 339 696)">
   <path d="M0.993654 0L3.63775 0L29.3281-67.1323L30.0303-67.1323L30.0303-70.459L28.1226-70.459ZM11.6885-24.4799L46.9815-24.4799L46.2315-26.7285L12.4385-26.7285ZM55.1196 0L57.7637 0L30.6382-70.459L29.4326-70.459L29.4326-67.1323Z"/>
  </g>
  <line id="Baseline-S" style="fill:none;stroke:#27AAE1;opacity:1;stroke-width:0.5;" x1="263" x2="3036" y1="696" y2="696"/>
  <line id="Capline-S" style="fill:none;stroke:#27AAE1;opacity:1;stroke-width:0.5;" x1="263" x2="3036" y1="625.541" y2="625.541"/>
  <g id="H-reference" style="fill:#27AAE1;stroke:none;" transform="matrix(1 0 0 1 339 1126)">
   <path d="M0.993654 0L3.63775 0L29.3281-67.1323L30.0303-67.1323L30.0303-70.459L28.1226-70.459ZM11.6885-24.4799L46.9815-24.4799L46.2315-26.7285L12.4385-26.7285ZM55.1196 0L57.7637 0L30.6382-70.459L29.4326-70.459L29.4326-67.1323Z"/>
  </g>
  <line id="Baseline-M" style="fill:none;stroke:#27AAE1;opacity:1;stroke-width:0.5;" x1="263" x2="3036" y1="1126" y2="1126"/>
  <line id="Capline-M" style="fill:none;stroke:#27AAE1;opacity:1;stroke-width:0.5;" x1="263" x2="3036" y1="1055.54" y2="1055.54"/>
  <g id="H-reference" style="fill:#27AAE1;stroke:none;" transform="matrix(1 0 0 1 339 1556)">
   <path d="M0.993654 0L3.63775 0L29.3281-67.1323L30.0303-67.1323L30.0303-70.459L28.1226-70.459ZM11.6885-24.4799L46.9815-24.4799L46.2315-26.7285L12.4385-26.7285ZM55.1196 0L57.7637 0L30.6382-70.459L29.4326-70.459L29.4326-67.1323Z"/>
  </g>
  <line id="Baseline-L" style="fill:none;stroke:#27AAE1;opacity:1;stroke-width:0.5;" x1="263" x2="3036" y1="1556" y2="1556"/>
  <line id="Capline-L" style="fill:none;stroke:#27AAE1;opacity:1;stroke-width:0.5;" x1="263" x2="3036" y1="1485.54" y2="1485.54"/>
  <line id="left-margin-Regular-M" style="fill:none;stroke:#00AEEF;stroke-width:0.5;opacity:1.0;" x1="1402.39" x2="1402.39" y1="1030.79" y2="1150.12"/>
  <line id="right-margin-Regular-M" style="fill:none;stroke:#00AEEF;stroke-width:0.5;opacity:1.0;" x1="1497.3" x2="1497.3" y1="1030.79" y2="1150.12"/>
 </g>
 <g id="Symbols">
  <g id="Bold-L" transform="matrix(1 0 0 1 2277.78 1556)">
   <path class="monochrome-0 SFSymbolsPreview000000" d="M35.6712 14.435L35.6712-8.785L12.4512-8.785L12.4512-23.9425L50.8287-23.9425L50.8287 14.435L35.6712 14.435ZM73.4037 14.435L73.4037-23.9425L111.942-23.9425L111.942-8.785L88.5612-8.785L88.5612 14.435L73.4037 14.435ZM12.4512-46.5175L12.4512-61.675L35.6712-61.675L35.6712-85.0563L50.8287-85.0563L50.8287-46.5175L12.4512-46.5175ZM73.4037-46.5175L73.4037-85.0563L88.5612-85.0563L88.5612-61.675L111.942-61.675L111.942-46.5175L73.4037-46.5175Z"/>
  </g>
  <g id="Semibold-L" transform="matrix(1 0 0 1 1983.07 1556)">
   <path class="monochrome-0 SFSymbolsPreview000000" d="M34.9001 12.4721L34.9001-9.9768L12.4512-9.9768L12.4512-22.7507L47.674-22.7507L47.674 12.4721L34.9001 12.4721ZM72.6326 12.4721L72.6326-22.7507L107.947-22.7507L107.947-9.9768L85.4065-9.9768L85.4065 12.4721L72.6326 12.4721ZM12.4512-47.7093L12.4512-60.4832L34.9001-60.4832L34.9001-83.0232L47.674-83.0232L47.674-47.7093L12.4512-47.7093ZM72.6326-47.7093L72.6326-83.0232L85.4065-83.0232L85.4065-60.4832L107.947-60.4832L107.947-47.7093L72.6326-47.7093Z"/>
  </g>
  <g id="Medium-L" transform="matrix(1 0 0 1 1687.86 1556)">
   <path class="monochrome-0 SFSymbolsPreview000000" d="M34.3217 10.9997L34.3217-10.8708L12.4512-10.8708L12.4512-21.8567L45.3077-21.8567L45.3077 10.9997L34.3217 10.9997ZM72.0542 10.9997L72.0542-21.8567L104.949-21.8567L104.949-10.8708L83.0402-10.8708L83.0402 10.9997L72.0542 10.9997ZM12.4512-48.6033L12.4512-59.5892L34.3217-59.5892L34.3217-81.4983L45.3077-81.4983L45.3077-48.6033L12.4512-48.6033ZM72.0542-48.6033L72.0542-81.4983L83.0402-81.4983L83.0402-59.5892L104.949-59.5892L104.949-48.6033L72.0542-48.6033Z"/>
  </g>
  <g id="Regular-L" transform="matrix(1 0 0 1 1392.24 1556)">
   <path class="monochrome-0 SFSymbolsPreview000000" d="M33.8974 9.92L33.8974-11.5262L12.4512-11.5262L12.4512-21.2013L43.5724-21.2013L43.5724 9.92L33.8974 9.92ZM71.63 9.92L71.63-21.2013L102.751-21.2013L102.751-11.5262L81.3049-11.5262L81.3049 9.92L71.63 9.92ZM12.4512-49.2587L12.4512-58.9337L33.8974-58.9337L33.8974-80.38L43.5724-80.38L43.5724-49.2587L12.4512-49.2587ZM71.63-49.2587L71.63-80.38L81.3049-80.38L81.3049-58.9337L102.751-58.9337L102.751-49.2587L71.63-49.2587Z"/>
  </g>
  <g id="Light-L" transform="matrix(1 0 0 1 1095.53 1556)">
   <path class="monochrome-0 SFSymbolsPreview000000" d="M36.5645 9.92L36.5645-14.1933L12.4512-14.1933L12.4512-21.5113L43.8825-21.5113L43.8825 9.92L36.5645 9.92ZM71.3199 9.92L71.3199-21.5113L102.751-21.5113L102.751-14.1933L78.6379-14.1933L78.6379 9.92L71.3199 9.92ZM12.4512-48.9487L12.4512-56.2667L36.5645-56.2667L36.5645-80.38L43.8825-80.38L43.8825-48.9487L12.4512-48.9487ZM71.3199-48.9487L71.3199-80.38L78.6379-80.38L78.6379-56.2667L102.751-56.2667L102.751-48.9487L71.3199-48.9487Z"/>
  </g>
  <g id="Thin-L" transform="matrix(1 0 0 1 798.821 1556)">
   <path class="monochrome-0 SFSymbolsPreview000000" d="M39.2311 9.92L39.2311-16.8599L12.4512-16.8599L12.4512-21.8214L44.1926-21.8214L44.1926 9.92L39.2311 9.92ZM71.0098 9.92L71.0098-21.8214L102.751-21.8214L102.751-16.8599L75.9713-16.8599L75.9713 9.92L71.0098 9.92ZM12.4512-48.6386L12.4512-53.6001L39.2311-53.6001L39.2311-80.38L44.1926-80.38L44.1926-48.6386L12.4512-48.6386ZM71.0098-48.6386L71.0098-80.38L75.9713-80.38L75.9713-53.6001L102.751-53.6001L102.751-48.6386L71.0098-48.6386Z"/>
  </g>
  <g id="Ultralight-L" transform="matrix(1 0 0 1 502.11 1556)">
   <path class="monochrome-0 SFSymbolsPreview000000" d="M40.8312 9.92L40.8312-18.46L12.4512-18.46L12.4512-22.0075L44.3787-22.0075L44.3787 9.92L40.8312 9.92ZM70.8237 9.92L70.8237-22.0075L102.751-22.0075L102.751-18.46L74.3712-18.46L74.3712 9.92L70.8237 9.92ZM12.4512-48.4525L12.4512-52L40.8312-52L40.8312-80.38L44.3787-80.38L44.3787-48.4525L12.4512-48.4525ZM70.8237-48.4525L70.8237-80.38L74.3712-80.38L74.3712-52L102.751-52L102.751-48.4525L70.8237-48.4525Z"/>
  </g>
  <g id="Bold-M" transform="matrix(1 0 0 1 2287.78 1126)">
   <path class="monochrome-0 SFSymbolsPreview000000" d="M29.3262 4.52L29.3262-12.355L12.4512-12.355L12.4512-28.105L45.0762-28.105L45.0762 4.52L29.3262 4.52ZM59.3262 4.52L59.3262-28.105L91.9512-28.105L91.9512-12.355L75.0762-12.355L75.0762 4.52L59.3262 4.52ZM12.4512-42.355L12.4512-58.105L29.3262-58.105L29.3262-74.98L45.0762-74.98L45.0762-42.355L12.4512-42.355ZM59.3262-42.355L59.3262-74.98L75.0762-74.98L75.0762-58.105L91.9512-58.105L91.9512-42.355L59.3262-42.355Z"/>
  </g>
  <g id="Semibold-M" transform="matrix(1 0 0 1 1993.13 1126)">
   <path class="monochrome-0 SFSymbolsPreview000000" d="M28.5109 2.45487L28.5109-13.6049L12.4512-13.6049L12.4512-26.8551L41.7612-26.8551L41.7612 2.45487L28.5109 2.45487ZM58.511 2.45487L58.511-26.8551L87.821-26.8551L87.821-13.6049L71.7612-13.6049L71.7612 2.45487L58.511 2.45487ZM12.4512-43.6049L12.4512-56.8551L28.5109-56.8551L28.5109-72.9149L41.7612-72.9149L41.7612-43.6049L12.4512-43.6049ZM58.511-43.6049L58.511-72.9149L71.7612-72.9149L71.7612-56.8551L87.821-56.8551L87.821-43.6049L58.511-43.6049Z"/>
  </g>
  <g id="Medium-M" transform="matrix(1 0 0 1 1697.97 1126)">
   <path class="monochrome-0 SFSymbolsPreview000000" d="M27.8996 0.905875L27.8996-14.5425L12.4512-14.5425L12.4512-25.9175L39.2746-25.9175L39.2746 0.905875L27.8996 0.905875ZM57.8996 0.905875L57.8996-25.9175L84.7229-25.9175L84.7229-14.5425L69.2746-14.5425L69.2746 0.905875L57.8996 0.905875ZM12.4512-44.5425L12.4512-55.9175L27.8996-55.9175L27.8996-71.3659L39.2746-71.3659L39.2746-44.5425L12.4512-44.5425ZM57.8996-44.5425L57.8996-71.3659L69.2746-71.3659L69.2746-55.9175L84.7229-55.9175L84.7229-44.5425L57.8996-44.5425Z"/>
  </g>
  <g id="Regular-M" transform="matrix(1 0 0 1 1402.39 1126)">
   <path class="monochrome-0 SFSymbolsPreview000000" d="M27.4512-0.23L27.4512-15.23L12.4512-15.23L12.4512-25.23L37.4512-25.23L37.4512-0.23L27.4512-0.23ZM57.4512-0.23L57.4512-25.23L82.4512-25.23L82.4512-15.23L67.4512-15.23L67.4512-0.23L57.4512-0.23ZM12.4512-45.23L12.4512-55.23L27.4512-55.23L27.4512-70.23L37.4512-70.23L37.4512-45.23L12.4512-45.23ZM57.4512-45.23L57.4512-70.23L67.4512-70.23L67.4512-55.23L82.4512-55.23L82.4512-45.23L57.4512-45.23Z"/>
  </g>
  <g id="Light-M" transform="matrix(1 0 0 1 1105.68 1126)">
   <path class="monochrome-0 SFSymbolsPreview000000" d="M29.9513-0.23L29.9513-17.7301L12.4512-17.7301L12.4512-25.23L37.4512-25.23L37.4512-0.23L29.9513-0.23ZM57.4512-0.23L57.4512-25.23L82.4512-25.23L82.4512-17.7301L64.9511-17.7301L64.9511-0.23L57.4512-0.23ZM12.4512-45.23L12.4512-52.7299L29.9513-52.7299L29.9513-70.23L37.4512-70.23L37.4512-45.23L12.4512-45.23ZM57.4512-45.23L57.4512-70.23L64.9511-70.23L64.9511-52.7299L82.4512-52.7299L82.4512-45.23L57.4512-45.23Z"/>
  </g>
  <g id="Thin-M" transform="matrix(1 0 0 1 808.971 1126)">
   <path class="monochrome-0 SFSymbolsPreview000000" d="M32.4512-0.23L32.4512-20.23L12.4512-20.23L12.4512-25.23L37.4512-25.23L37.4512-0.23L32.4512-0.23ZM57.4512-0.23L57.4512-25.23L82.4512-25.23L82.4512-20.23L62.4512-20.23L62.4512-0.23L57.4512-0.23ZM12.4512-45.23L12.4512-50.23L32.4512-50.23L32.4512-70.23L37.4512-70.23L37.4512-45.23L12.4512-45.23ZM57.4512-45.23L57.4512-70.23L62.4512-70.23L62.4512-50.23L82.4512-50.23L82.4512-45.23L57.4512-45.23Z"/>
  </g>
  <g id="Ultralight-M" transform="matrix(1 0 0 1 512.26 1126)">
   <path class="monochrome-0 SFSymbolsPreview000000" d="M33.9512-0.23L33.9512-21.73L12.4512-21.73L12.4512-25.23L37.4512-25.23L37.4512-0.23L33.9512-0.23ZM57.4512-0.23L57.4512-25.23L82.4512-25.23L82.4512-21.73L60.9512-21.73L60.9512-0.23L57.4512-0.23ZM12.4512-45.23L12.4512-48.73L33.9512-48.73L33.9512-70.23L37.4512-70.23L37.4512-45.23L12.4512-45.23ZM57.4512-45.23L57.4512-70.23L60.9512-70.23L60.9512-48.73L82.4512-48.73L82.4512-45.23L57.4512-45.23Z"/>
  </g>
  <g id="Bold-S" transform="matrix(1 0 0 1 2297.74 696)">
   <path class="monochrome-0 SFSymbolsPreview000000" d="M25.7656-5.44525L25.7656-18.7596L12.4512-18.7596L12.4512-30.3974L37.4033-30.3974L37.4033-5.44525L25.7656-5.44525ZM47.0686-5.44525L47.0686-30.3974L72.0207-30.3974L72.0207-18.7596L58.7063-18.7596L58.7063-5.44525L47.0686-5.44525ZM12.4512-40.0626L12.4512-51.7004L25.7656-51.7004L25.7656-65.0148L37.4033-65.0148L37.4033-40.0626L12.4512-40.0626ZM47.0686-40.0626L47.0686-65.0148L58.7063-65.0148L58.7063-51.7004L72.0207-51.7004L72.0207-40.0626L47.0686-40.0626Z"/>
  </g>
  <g id="Semibold-S" transform="matrix(1 0 0 1 2002.66 696)">
   <path class="monochrome-0 SFSymbolsPreview000000" d="M25.1223-7.07463L25.1223-19.7458L12.4512-19.7458L12.4512-29.4112L34.7878-29.4112L34.7878-7.07463L25.1223-7.07463ZM46.4253-7.07463L46.4253-29.4112L68.7619-29.4112L68.7619-19.7458L56.0908-19.7458L56.0908-7.07463L46.4253-7.07463ZM12.4512-41.0488L12.4512-50.7142L25.1223-50.7142L25.1223-63.3854L34.7878-63.3854L34.7878-41.0488L12.4512-41.0488ZM46.4253-41.0488L46.4253-63.3854L56.0908-63.3854L56.0908-50.7142L68.7619-50.7142L68.7619-41.0488L46.4253-41.0488Z"/>
  </g>
  <g id="Medium-S" transform="matrix(1 0 0 1 1707.17 696)">
   <path class="monochrome-0 SFSymbolsPreview000000" d="M24.64-8.29679L24.64-20.4856L12.4512-20.4856L12.4512-28.6714L32.8258-28.6714L32.8258-8.29679L24.64-8.29679ZM45.943-8.29679L45.943-28.6714L66.3176-28.6714L66.3176-20.4856L54.1288-20.4856L54.1288-8.29679L45.943-8.29679ZM12.4512-41.7886L12.4512-49.9744L24.64-49.9744L24.64-62.1632L32.8258-62.1632L32.8258-41.7886L12.4512-41.7886ZM45.943-41.7886L45.943-62.1632L54.1288-62.1632L54.1288-49.9744L66.3176-49.9744L66.3176-41.7886L45.943-41.7886Z"/>
  </g>
  <g id="Regular-S" transform="matrix(1 0 0 1 1411.36 696)">
   <path class="monochrome-0 SFSymbolsPreview000000" d="M24.2862-9.193L24.2862-21.028L12.4512-21.028L12.4512-28.129L31.3872-28.129L31.3872-9.193L24.2862-9.193ZM45.5892-9.193L45.5892-28.129L64.5252-28.129L64.5252-21.028L52.6902-21.028L52.6902-9.193L45.5892-9.193ZM12.4512-42.331L12.4512-49.432L24.2862-49.432L24.2862-61.267L31.3872-61.267L31.3872-42.331L12.4512-42.331ZM45.5892-42.331L45.5892-61.267L52.6902-61.267L52.6902-49.432L64.5252-49.432L64.5252-42.331L45.5892-42.331Z"/>
  </g>
  <g id="Light-S" transform="matrix(1 0 0 1 1114.65 696)">
   <path class="monochrome-0 SFSymbolsPreview000000" d="M26.2588-9.193L26.2588-23.0006L12.4512-23.0006L12.4512-28.129L31.3872-28.129L31.3872-9.193L26.2588-9.193ZM45.5892-9.193L45.5892-28.129L64.5252-28.129L64.5252-23.0006L50.7176-23.0006L50.7176-9.193L45.5892-9.193ZM12.4512-42.331L12.4512-47.4594L26.2588-47.4594L26.2588-61.267L31.3872-61.267L31.3872-42.331L12.4512-42.331ZM45.5892-42.331L45.5892-61.267L50.7176-61.267L50.7176-47.4594L64.5252-47.4594L64.5252-42.331L45.5892-42.331Z"/>
  </g>
  <g id="Thin-S" transform="matrix(1 0 0 1 817.934 696)">
   <path class="monochrome-0 SFSymbolsPreview000000" d="M28.2312-9.193L28.2312-24.973L12.4512-24.973L12.4512-28.129L31.3872-28.129L31.3872-9.193L28.2312-9.193ZM45.5892-9.193L45.5892-28.129L64.5252-28.129L64.5252-24.973L48.7452-24.973L48.7452-9.193L45.5892-9.193ZM12.4512-42.331L12.4512-45.487L28.2312-45.487L28.2312-61.267L31.3872-61.267L31.3872-42.331L12.4512-42.331ZM45.5892-42.331L45.5892-61.267L48.7452-61.267L48.7452-45.487L64.5252-45.487L64.5252-42.331L45.5892-42.331Z"/>
  </g>
  <g id="Ultralight-S" transform="matrix(1 0 0 1 521.223 696)">
   <path class="monochrome-0 SFSymbolsPreview000000" d="M29.4147-9.193L29.4147-26.1565L12.4512-26.1565L12.4512-28.129L31.3872-28.129L31.3872-9.193L29.4147-9.193ZM45.5892-9.193L45.5892-28.129L64.5252-28.129L64.5252-26.1565L47.5617-26.1565L47.5617-9.193L45.5892-9.193ZM12.4512-42.331L12.4512-44.3035L29.4147-44.3035L29.4147-61.267L31.3872-61.267L31.3872-42.331L12.4512-42.331ZM45.5892-42.331L45.5892-61.267L47.5617-61.267L47.5617-44.3035L64.5252-44.3035L64.5252-42.331L45.5892-42.331Z"/>
  </g>
 </g>
</svg>
